# xmcd
#
# Track frame offsets: 
#        150
#        15625
#        30150
#        39958
#        61108
#        80945
#        95200
#        107388
#        121900
#
# Disc length: 1973 seconds
#
# Revision: 2
# Processed by: cddbd v1.5.2PL0 Copyright (c) Steve Scherf et al.
# Submitted via: ExactAudioCopy v1.0b1
#
DISCID=6307b309
DTITLE=Lenny Breau and Chet Atkins - Standard Brands
DYEAR=1994
DGENRE=Bluegrass
TTITLE0=Batucada
TTITLE1=Tenderly
TTITLE2=Cattle call
TTITLE3=Taking a chance on love
TTITLE4=Somebody's knockin'
TTITLE5=This can't be love
TTITLE6=This nearly was mine
TTITLE7=Going home
TTITLE8=Polka dots and moonbeams
EXTD=
EXTT0=
EXTT1=
EXTT2=
EXTT3=
EXTT4=
EXTT5=
EXTT6=
EXTT7=
EXTT8=
PLAYORDER=
